M48
; DRILL file {KiCad (6.0.11)} date Sat Jul  8 13:40:51 2023
; FORMAT={-:-/ absolute / inch / decimal}
; #@! TF.CreationDate,2023-07-08T13:40:51+12:00
; #@! TF.GenerationSoftware,Kicad,Pcbnew,(6.0.11)
; #@! TF.FileFunction,Plated,1,4,PTH
FMAT,2
INCH
; #@! TA.AperFunction,Plated,PTH,ViaDrill
T1C0.0118
; #@! TA.AperFunction,Plated,PTH,ComponentDrill
T2C0.0276
; #@! TA.AperFunction,Plated,PTH,ComponentDrill
T3C0.0315
; #@! TA.AperFunction,Plated,PTH,ComponentDrill
T4C0.0354
; #@! TA.AperFunction,Plated,PTH,ComponentDrill
T5C0.0394
; #@! TA.AperFunction,Plated,PTH,ComponentDrill
T6C0.0433
%
G90
G05
T1
X3.6811Y-5.3307
X3.7835Y-3.2933
X3.8622Y-2.9272
X3.885Y-3.552
X3.9173Y-2.3071
X3.9843Y-3.4075
X4.0217Y-2.3484
X4.0276Y-5.1339
X4.0551Y-5.1654
X4.0551Y-3.5832
X4.063Y-3.0098
X4.085Y-3.7201
X4.1299Y-2.9291
X4.1339Y-5.1102
X4.1614Y-2.3509
X4.1616Y-4.5372
X4.185Y-3.935
X4.3504Y-4.4921
X4.3622Y-3.6831
X4.3624Y-2.303
X4.3873Y-3.3819
X4.3975Y-5.16
X4.4455Y-4.3071
X4.4549Y-5.4608
X4.4624Y-2.6951
X4.4724Y-3.8819
X4.4843Y-2.9724
X4.4843Y-3.3563
X4.5354Y-3.4336
X4.5624Y-2.4364
X4.5832Y-3.5812
X4.5841Y-3.8366
X4.5866Y-3.3307
X4.5866Y-4.4646
X4.5906Y-2.6969
X4.6065Y-4.1048
X4.622Y-4.6358
X4.622Y-4.7913
X4.6457Y-4.9587
X4.6521Y-4.5335
X4.6624Y-2.438
X4.685Y-3.6088
X4.685Y-3.9705
X4.7022Y-2.6496
X4.7283Y-4.435
X4.7549Y-5.4306
X4.7559Y-4.3366
X4.7559Y-5.483
X4.7624Y-2.4384
X4.7953Y-2.6102
X4.8228Y-4.2343
X4.8622Y-4.1358
X4.8624Y-2.5236
X4.8937Y-2.6378
X4.8976Y-3.0098
X4.9331Y-4.0335
X4.9567Y-3.935
X4.9626Y-2.5217
X4.9646Y-3.437
X4.9764Y-3.5827
X4.9955Y-3.7356
X5.0Y-2.6142
X5.0079Y-3.5157
X5.0093Y-3.47
X5.0276Y-4.8327
X5.0276Y-5.0787
X5.0315Y-2.8524
X5.0354Y-2.8878
X5.0591Y-3.6831
X5.0591Y-5.5846
X5.0624Y-2.2356
X5.0624Y-2.5585
X5.1024Y-3.4114
X5.1624Y-2.2746
X5.1624Y-2.5591
X5.1624Y-2.8303
X5.1811Y-3.9311
X5.185Y-3.4921
X5.2624Y-2.2337
X5.2638Y-2.5591
X5.2638Y-2.8642
X5.3051Y-4.8878
X5.315Y-4.1791
X5.3177Y-3.8354
X5.3326Y-3.5429
X5.3346Y-4.8366
X5.3346Y-5.9035
X5.3425Y-4.0768
X5.3425Y-4.5846
X5.3622Y-2.5591
X5.4055Y-4.1319
X5.4055Y-4.687
X5.4291Y-4.6319
X5.4291Y-5.9547
X5.4567Y-3.9823
X5.4606Y-3.3287
X5.4624Y-2.5669
X5.4764Y-5.3091
X5.4783Y-4.0354
X5.5079Y-3.3563
X5.5118Y-4.2382
X5.5472Y-3.8327
X5.5488Y-3.2185
X5.5591Y-5.3551
X5.5624Y-2.6069
X5.6161Y-2.3519
X5.6457Y-3.937
X5.6458Y-5.16
X5.6624Y-2.6063
X5.6756Y-4.8878
X5.684Y-4.2396
X5.6969Y-4.9626
X5.6993Y-4.3366
X5.7008Y-5.0472
X5.7205Y-5.185
X5.7205Y-5.2264
X5.7283Y-3.7343
X5.7283Y-3.5472
X5.7323Y-4.437
X5.7559Y-4.6358
X5.7559Y-5.0472
X5.7677Y-2.2717
X5.7677Y-3.5591
X5.7835Y-4.9705
X5.7913Y-2.248
X5.7913Y-3.5354
X5.8228Y-2.2244
X5.8228Y-3.5079
X5.8465Y-2.1929
X5.8465Y-3.4862
X5.8701Y-2.6142
X5.8701Y-3.3878
X5.8858Y-2.5866
X5.8937Y-3.2854
X5.9134Y-2.5709
X5.9173Y-3.1831
X5.9406Y-4.6354
X5.9409Y-2.5551
X5.9409Y-3.0846
X5.9449Y-4.2106
X5.9634Y-4.5354
X5.9646Y-2.5315
X5.9646Y-2.9862
X5.9646Y-4.2933
X5.9818Y-4.4882
X5.9828Y-4.3354
X5.9882Y-2.5079
X5.9882Y-2.8839
X6.0Y-3.5591
X6.0Y-3.7854
X6.005Y-4.7352
X6.0118Y-2.4843
X6.0118Y-2.7854
X6.0197Y-4.2343
X6.0236Y-3.5354
X6.0236Y-3.6831
X6.028Y-4.5862
X6.0354Y-4.1535
X6.0354Y-2.2854
X6.0354Y-2.3715
X6.0354Y-2.4606
X6.0363Y-2.6861
X6.0472Y-3.5118
X6.0472Y-3.5846
X6.052Y-4.6862
X6.0591Y-2.4395
X6.063Y-4.1378
X6.0736Y-4.7862
X6.0748Y-2.6063
X6.1967Y-4.9864
X6.1969Y-3.7343
X6.2323Y-3.8366
X6.2323Y-4.8878
X6.2598Y-2.7425
X6.2717Y-5.0374
X6.2726Y-5.7864
X6.2767Y-4.0846
X6.2992Y-2.7087
X6.2992Y-4.1864
X6.3228Y-2.655
X6.3232Y-4.2873
X6.3425Y-5.7303
X6.3465Y-2.9311
X6.374Y-2.6299
X6.3765Y-4.3864
X6.3858Y-2.5551
X6.4016Y-4.4864
X6.4291Y-2.5531
X6.4291Y-4.5864
X6.4593Y-4.6864
X6.4606Y-2.3184
X6.4921Y-2.3445
X6.4931Y-4.7864
T2
X4.2331Y-5.7248
X4.2646Y-5.772
X4.2961Y-5.7248
X4.3276Y-5.772
X4.3591Y-5.7248
T3
X3.7315Y-5.2244
X3.7624Y-2.1797
X3.7624Y-2.7797
X3.765Y-3.0713
X3.7778Y-3.7372
X3.7778Y-3.8372
X3.7778Y-3.9372
X3.7778Y-4.0372
X3.7778Y-4.1372
X3.7778Y-4.2372
X3.7778Y-4.3372
X3.7778Y-4.4372
X3.7778Y-4.5372
X3.7778Y-4.6372
X3.7778Y-4.7372
X3.7778Y-4.8372
X3.7778Y-4.9372
X3.7778Y-5.0372
X3.785Y-3.1921
X3.785Y-3.4921
X3.8624Y-2.1797
X3.8624Y-2.7797
X3.8634Y-3.0713
X3.885Y-3.1921
X3.885Y-3.4921
X3.9624Y-2.1797
X3.9624Y-2.7797
X3.985Y-3.1921
X3.985Y-3.4921
X4.0189Y-2.9291
X4.0193Y-3.0591
X4.0315Y-5.2244
X4.0315Y-5.3299
X4.0315Y-5.6299
X4.0624Y-2.1797
X4.0624Y-2.7797
X4.085Y-3.1921
X4.085Y-3.4921
X4.1624Y-2.1797
X4.1624Y-2.7797
X4.1654Y-5.4173
X4.1654Y-5.5157
X4.185Y-3.1921
X4.185Y-3.4921
X4.2362Y-5.2303
X4.2362Y-5.3287
X4.2624Y-2.1797
X4.2624Y-2.7797
X4.285Y-3.1921
X4.285Y-3.4921
X4.298Y-3.6181
X4.3189Y-2.9291
X4.3193Y-3.0591
X4.3549Y-5.2504
X4.3549Y-5.5504
X4.3624Y-2.1797
X4.3624Y-2.7797
X4.3778Y-3.7372
X4.3778Y-3.8372
X4.3778Y-3.9372
X4.3778Y-4.0372
X4.3778Y-4.1372
X4.3778Y-4.2372
X4.3778Y-4.3372
X4.3778Y-4.4372
X4.3778Y-4.5372
X4.3778Y-4.6372
X4.3778Y-4.7372
X4.3778Y-4.8372
X4.3778Y-4.9372
X4.3778Y-5.0372
X4.385Y-3.1921
X4.385Y-3.4921
X4.3965Y-3.6181
X4.4549Y-5.2504
X4.4549Y-5.5504
X4.4624Y-2.1797
X4.4624Y-2.7797
X4.4654Y-2.8965
X4.4839Y-3.063
X4.485Y-3.1921
X4.485Y-3.4921
X4.5177Y-3.7356
X4.5177Y-3.8356
X4.5177Y-3.9356
X4.5177Y-4.0356
X4.5177Y-4.1356
X4.5177Y-4.2356
X4.5177Y-4.3356
X4.5177Y-4.4356
X4.5177Y-4.5356
X4.5177Y-4.6356
X4.5177Y-4.7356
X4.5177Y-4.8356
X4.5177Y-4.9356
X4.5177Y-5.0356
X4.5549Y-5.2504
X4.5549Y-5.5504
X4.5624Y-2.1797
X4.5624Y-2.7797
X4.5638Y-2.8965
X4.585Y-3.1921
X4.585Y-3.4921
X4.6018Y-5.7579
X4.6549Y-5.2504
X4.6549Y-5.5504
X4.6624Y-2.1797
X4.6624Y-2.7797
X4.685Y-3.1921
X4.685Y-3.4921
X4.7002Y-5.7579
X4.7549Y-5.2504
X4.7549Y-5.5504
X4.7624Y-2.1797
X4.7624Y-2.7797
X4.7839Y-3.063
X4.785Y-3.1921
X4.785Y-3.4921
X4.8549Y-5.2504
X4.8549Y-5.5504
X4.8624Y-2.1797
X4.8624Y-2.7797
X4.885Y-3.1921
X4.885Y-3.4921
X4.9549Y-5.2504
X4.9549Y-5.5504
X4.9624Y-2.1797
X4.9624Y-2.7797
X5.0398Y-3.6146
X5.0624Y-2.1797
X5.0624Y-2.7797
X5.1177Y-3.7356
X5.1177Y-3.8356
X5.1177Y-3.9356
X5.1177Y-4.0356
X5.1177Y-4.1356
X5.1177Y-4.2356
X5.1177Y-4.3356
X5.1177Y-4.4356
X5.1177Y-4.5356
X5.1177Y-4.6356
X5.1177Y-4.7356
X5.1177Y-4.8356
X5.1177Y-4.9356
X5.1177Y-5.0356
X5.1382Y-3.6146
X5.1433Y-2.9055
X5.1433Y-3.0039
X5.1624Y-2.1797
X5.1624Y-2.7797
X5.2091Y-5.3551
X5.2091Y-5.6551
X5.2606Y-3.7354
X5.2606Y-3.8354
X5.2606Y-3.9354
X5.2606Y-4.0354
X5.2606Y-4.1354
X5.2606Y-4.2354
X5.2606Y-4.3354
X5.2606Y-4.4354
X5.2606Y-4.5354
X5.2606Y-4.6354
X5.2606Y-4.7354
X5.2606Y-4.8354
X5.2606Y-4.9354
X5.2606Y-5.0354
X5.2624Y-2.1797
X5.2624Y-2.7797
X5.3161Y-2.9756
X5.3161Y-3.2756
X5.3624Y-2.1797
X5.3624Y-2.7797
X5.4624Y-2.1797
X5.4624Y-2.7797
X5.5624Y-2.1797
X5.5624Y-2.7797
X5.6161Y-2.9756
X5.6161Y-3.2756
X5.6531Y-3.6102
X5.6624Y-2.1797
X5.6624Y-2.7797
X5.7839Y-5.1594
X5.8091Y-5.3551
X5.8091Y-5.6551
X5.8606Y-3.7354
X5.8606Y-3.8354
X5.8606Y-3.9354
X5.8606Y-4.0354
X5.8606Y-4.1354
X5.8606Y-4.2354
X5.8606Y-4.3354
X5.8606Y-4.4354
X5.8606Y-4.5354
X5.8606Y-4.6354
X5.8606Y-4.7354
X5.8606Y-4.8354
X5.8606Y-4.9354
X5.8606Y-5.0354
X5.8823Y-5.1594
X5.9531Y-3.6102
X6.0039Y-3.8839
X6.0039Y-3.9823
X6.5472Y-5.4799
X6.5472Y-5.7799
X6.6693Y-5.4799
X6.6693Y-5.7799
X6.6736Y-3.8878
X6.6736Y-3.9862
X7.2165Y-5.4799
X7.2165Y-5.7799
X7.3465Y-3.8898
X7.3465Y-3.9882
T4
X3.7858Y-5.5098
X3.8858Y-5.5098
T5
X5.0142Y-5.9075
X5.1142Y-5.9075
X5.2142Y-5.9075
X6.1299Y-2.1854
X6.1299Y-2.2854
X6.1299Y-2.3854
X6.1299Y-2.4854
X6.1299Y-2.5854
X6.1299Y-2.6854
X6.1299Y-2.7854
X6.1299Y-2.8854
X6.1299Y-2.9854
X6.1299Y-3.0854
X6.1299Y-3.1854
X6.1299Y-3.2854
X6.1299Y-3.3854
X6.1299Y-3.4854
X6.1299Y-3.5854
X6.1299Y-3.6854
X6.1299Y-3.7854
X6.1299Y-3.8854
X6.1299Y-3.9854
X6.1299Y-4.0854
X6.1299Y-4.1854
X6.1299Y-4.2854
X6.1299Y-4.3854
X6.1299Y-4.4854
X6.1299Y-4.5854
X6.1299Y-4.6854
X6.1299Y-4.7854
X6.1299Y-4.8854
X6.1299Y-4.9854
X6.1299Y-5.0854
X6.1299Y-5.1854
X6.1299Y-5.2854
X6.1299Y-5.3854
X6.1299Y-5.4854
X6.1299Y-5.5854
X6.1299Y-5.6854
X6.1299Y-5.7854
X6.1299Y-5.8854
X6.8011Y-2.1854
X6.8011Y-2.2854
X6.8011Y-2.3854
X6.8011Y-2.4854
X6.8011Y-2.5854
X6.8011Y-2.6854
X6.8011Y-2.7854
X6.8011Y-2.8854
X6.8011Y-2.9854
X6.8011Y-3.0854
X6.8011Y-3.1854
X6.8011Y-3.2854
X6.8011Y-3.3854
X6.8011Y-3.4854
X6.8011Y-3.5854
X6.8011Y-3.6854
X6.8011Y-3.7854
X6.8011Y-3.8854
X6.8011Y-3.9854
X6.8011Y-4.0854
X6.8011Y-4.1854
X6.8011Y-4.2854
X6.8011Y-4.3854
X6.8011Y-4.4854
X6.8011Y-4.5854
X6.8011Y-4.6854
X6.8011Y-4.7854
X6.8011Y-4.8854
X6.8011Y-4.9854
X6.8011Y-5.0854
X6.8011Y-5.1854
X6.8011Y-5.2854
X6.8011Y-5.3854
X6.8011Y-5.4854
X6.8011Y-5.5854
X6.8011Y-5.6854
X6.8011Y-5.7854
X6.8011Y-5.8854
X7.4722Y-2.1854
X7.4722Y-2.2854
X7.4722Y-2.3854
X7.4722Y-2.4854
X7.4722Y-2.5854
X7.4722Y-2.6854
X7.4722Y-2.7854
X7.4722Y-2.8854
X7.4722Y-2.9854
X7.4722Y-3.0854
X7.4722Y-3.1854
X7.4722Y-3.2854
X7.4722Y-3.3854
X7.4722Y-3.4854
X7.4722Y-3.5854
X7.4722Y-3.6854
X7.4722Y-3.7854
X7.4722Y-3.8854
X7.4722Y-3.9854
X7.4722Y-4.0854
X7.4722Y-4.1854
X7.4722Y-4.2854
X7.4722Y-4.3854
X7.4722Y-4.4854
X7.4722Y-4.5854
X7.4722Y-4.6854
X7.4722Y-4.7854
X7.4722Y-4.8854
X7.4722Y-4.9854
X7.4722Y-5.0854
X7.4722Y-5.1854
X7.4722Y-5.2854
X7.4722Y-5.3854
X7.4722Y-5.4854
X7.4722Y-5.5854
X7.4722Y-5.6854
X7.4722Y-5.7854
X7.4722Y-5.8854
T6
X3.7673Y-5.7362
X3.7673Y-5.9134
X4.0232Y-5.7362
X4.0232Y-5.9134
T2
G00X4.1524Y-5.9472
M15
G01X4.1524Y-5.9
M16
G05
G00X4.4398Y-5.9472
M15
G01X4.4398Y-5.9
M16
G05
T0
M30
