%TF.GenerationSoftware,KiCad,Pcbnew,(6.0.11)*%
%TF.CreationDate,2023-07-08T13:40:51+12:00*%
%TF.ProjectId,6502-retro,36353032-2d72-4657-9472-6f2e6b696361,1.1*%
%TF.SameCoordinates,Original*%
%TF.FileFunction,Legend,Bot*%
%TF.FilePolarity,Positive*%
%FSLAX46Y46*%
G04 Gerber Fmt 4.6, Leading zero omitted, Abs format (unit mm)*
G04 Created by KiCad (PCBNEW (6.0.11)) date 2023-07-08 13:40:51*
%MOMM*%
%LPD*%
G01*
G04 APERTURE LIST*
%ADD10R,1.600000X1.600000*%
%ADD11C,1.600000*%
%ADD12O,1.600000X1.600000*%
%ADD13R,1.700000X1.700000*%
%ADD14O,1.700000X1.700000*%
%ADD15O,1.100000X1.650000*%
%ADD16O,1.700000X2.700000*%
%ADD17R,1.800000X1.800000*%
%ADD18C,1.800000*%
%ADD19C,2.000000*%
G04 APERTURE END LIST*
%LPC*%
D10*
%TO.C,X2*%
X132310000Y-143640000D03*
D11*
X147550000Y-143640000D03*
X147550000Y-136020000D03*
X132310000Y-136020000D03*
%TD*%
%TO.C,R6*%
X109700000Y-74400000D03*
D12*
X102080000Y-74400000D03*
%TD*%
D11*
%TO.C,C4*%
X95630000Y-78010000D03*
X98130000Y-78010000D03*
%TD*%
D13*
%TO.C,J1*%
X155700000Y-55510000D03*
D14*
X155700000Y-58050000D03*
X155700000Y-60590000D03*
X155700000Y-63130000D03*
X155700000Y-65670000D03*
X155700000Y-68210000D03*
X155700000Y-70750000D03*
X155700000Y-73290000D03*
X155700000Y-75830000D03*
X155700000Y-78370000D03*
X155700000Y-80910000D03*
X155700000Y-83450000D03*
X155700000Y-85990000D03*
X155700000Y-88530000D03*
X155700000Y-91070000D03*
X155700000Y-93610000D03*
X155700000Y-96150000D03*
X155700000Y-98690000D03*
X155700000Y-101230000D03*
X155700000Y-103770000D03*
X155700000Y-106310000D03*
X155700000Y-108850000D03*
X155700000Y-111390000D03*
X155700000Y-113930000D03*
X155700000Y-116470000D03*
X155700000Y-119010000D03*
X155700000Y-121550000D03*
X155700000Y-124090000D03*
X155700000Y-126630000D03*
X155700000Y-129170000D03*
X155700000Y-131710000D03*
X155700000Y-134250000D03*
X155700000Y-136790000D03*
X155700000Y-139330000D03*
X155700000Y-141870000D03*
X155700000Y-144410000D03*
X155700000Y-146950000D03*
X155700000Y-149490000D03*
%TD*%
D10*
%TO.C,C12*%
X116884664Y-146250000D03*
D11*
X119384664Y-146250000D03*
%TD*%
%TO.C,R10*%
X183300000Y-146810000D03*
D12*
X183300000Y-139190000D03*
%TD*%
D11*
%TO.C,R9*%
X169400000Y-146810000D03*
D12*
X169400000Y-139190000D03*
%TD*%
D11*
%TO.C,C8*%
X169510000Y-98750000D03*
X169510000Y-101250000D03*
%TD*%
%TO.C,R5*%
X121510000Y-77800000D03*
D12*
X113890000Y-77800000D03*
%TD*%
D10*
%TO.C,U5*%
X96140000Y-88700000D03*
D12*
X98680000Y-88700000D03*
X101220000Y-88700000D03*
X103760000Y-88700000D03*
X106300000Y-88700000D03*
X108840000Y-88700000D03*
X111380000Y-88700000D03*
X113920000Y-88700000D03*
X116460000Y-88700000D03*
X119000000Y-88700000D03*
X121540000Y-88700000D03*
X124080000Y-88700000D03*
X124080000Y-81080000D03*
X121540000Y-81080000D03*
X119000000Y-81080000D03*
X116460000Y-81080000D03*
X113920000Y-81080000D03*
X111380000Y-81080000D03*
X108840000Y-81080000D03*
X106300000Y-81080000D03*
X103760000Y-81080000D03*
X101220000Y-81080000D03*
X98680000Y-81080000D03*
X96140000Y-81080000D03*
%TD*%
D11*
%TO.C,C1*%
X113420000Y-73570000D03*
X115920000Y-73570000D03*
%TD*%
D10*
%TO.C,U3*%
X133620000Y-94880000D03*
D12*
X133620000Y-97420000D03*
X133620000Y-99960000D03*
X133620000Y-102500000D03*
X133620000Y-105040000D03*
X133620000Y-107580000D03*
X133620000Y-110120000D03*
X133620000Y-112660000D03*
X133620000Y-115200000D03*
X133620000Y-117740000D03*
X133620000Y-120280000D03*
X133620000Y-122820000D03*
X133620000Y-125360000D03*
X133620000Y-127900000D03*
X148860000Y-127900000D03*
X148860000Y-125360000D03*
X148860000Y-122820000D03*
X148860000Y-120280000D03*
X148860000Y-117740000D03*
X148860000Y-115200000D03*
X148860000Y-112660000D03*
X148860000Y-110120000D03*
X148860000Y-107580000D03*
X148860000Y-105040000D03*
X148860000Y-102500000D03*
X148860000Y-99960000D03*
X148860000Y-97420000D03*
X148860000Y-94880000D03*
%TD*%
D15*
%TO.C,J4*%
X107520000Y-145135000D03*
X108320000Y-146885000D03*
X109120000Y-145135000D03*
X109920000Y-146885000D03*
X110720000Y-145135000D03*
D16*
X112770000Y-150460000D03*
X105470000Y-150460000D03*
%TD*%
D17*
%TO.C,D1*%
X96160000Y-139950000D03*
D18*
X98700000Y-139950000D03*
%TD*%
D13*
%TO.C,J2*%
X172747500Y-55510000D03*
D14*
X172747500Y-58050000D03*
X172747500Y-60590000D03*
X172747500Y-63130000D03*
X172747500Y-65670000D03*
X172747500Y-68210000D03*
X172747500Y-70750000D03*
X172747500Y-73290000D03*
X172747500Y-75830000D03*
X172747500Y-78370000D03*
X172747500Y-80910000D03*
X172747500Y-83450000D03*
X172747500Y-85990000D03*
X172747500Y-88530000D03*
X172747500Y-91070000D03*
X172747500Y-93610000D03*
X172747500Y-96150000D03*
X172747500Y-98690000D03*
X172747500Y-101230000D03*
X172747500Y-103770000D03*
X172747500Y-106310000D03*
X172747500Y-108850000D03*
X172747500Y-111390000D03*
X172747500Y-113930000D03*
X172747500Y-116470000D03*
X172747500Y-119010000D03*
X172747500Y-121550000D03*
X172747500Y-124090000D03*
X172747500Y-126630000D03*
X172747500Y-129170000D03*
X172747500Y-131710000D03*
X172747500Y-134250000D03*
X172747500Y-136790000D03*
X172747500Y-139330000D03*
X172747500Y-141870000D03*
X172747500Y-144410000D03*
X172747500Y-146950000D03*
X172747500Y-149490000D03*
%TD*%
D10*
%TO.C,U4*%
X95565000Y-70605000D03*
D12*
X98105000Y-70605000D03*
X100645000Y-70605000D03*
X103185000Y-70605000D03*
X105725000Y-70605000D03*
X108265000Y-70605000D03*
X110805000Y-70605000D03*
X113345000Y-70605000D03*
X115885000Y-70605000D03*
X118425000Y-70605000D03*
X120965000Y-70605000D03*
X123505000Y-70605000D03*
X126045000Y-70605000D03*
X128585000Y-70605000D03*
X131125000Y-70605000D03*
X133665000Y-70605000D03*
X136205000Y-70605000D03*
X138745000Y-70605000D03*
X141285000Y-70605000D03*
X143825000Y-70605000D03*
X143825000Y-55365000D03*
X141285000Y-55365000D03*
X138745000Y-55365000D03*
X136205000Y-55365000D03*
X133665000Y-55365000D03*
X131125000Y-55365000D03*
X128585000Y-55365000D03*
X126045000Y-55365000D03*
X123505000Y-55365000D03*
X120965000Y-55365000D03*
X118425000Y-55365000D03*
X115885000Y-55365000D03*
X113345000Y-55365000D03*
X110805000Y-55365000D03*
X108265000Y-55365000D03*
X105725000Y-55365000D03*
X103185000Y-55365000D03*
X100645000Y-55365000D03*
X98105000Y-55365000D03*
X95565000Y-55365000D03*
%TD*%
D13*
%TO.C,J5*%
X127360000Y-150050000D03*
D14*
X129900000Y-150050000D03*
X132440000Y-150050000D03*
%TD*%
D11*
%TO.C,R8*%
X166300000Y-146810000D03*
D12*
X166300000Y-139190000D03*
%TD*%
D11*
%TO.C,R1*%
X102400000Y-143000000D03*
D12*
X102400000Y-135380000D03*
%TD*%
D13*
%TO.C,J3*%
X189795000Y-55510000D03*
D14*
X189795000Y-58050000D03*
X189795000Y-60590000D03*
X189795000Y-63130000D03*
X189795000Y-65670000D03*
X189795000Y-68210000D03*
X189795000Y-70750000D03*
X189795000Y-73290000D03*
X189795000Y-75830000D03*
X189795000Y-78370000D03*
X189795000Y-80910000D03*
X189795000Y-83450000D03*
X189795000Y-85990000D03*
X189795000Y-88530000D03*
X189795000Y-91070000D03*
X189795000Y-93610000D03*
X189795000Y-96150000D03*
X189795000Y-98690000D03*
X189795000Y-101230000D03*
X189795000Y-103770000D03*
X189795000Y-106310000D03*
X189795000Y-108850000D03*
X189795000Y-111390000D03*
X189795000Y-113930000D03*
X189795000Y-116470000D03*
X189795000Y-119010000D03*
X189795000Y-121550000D03*
X189795000Y-124090000D03*
X189795000Y-126630000D03*
X189795000Y-129170000D03*
X189795000Y-131710000D03*
X189795000Y-134250000D03*
X189795000Y-136790000D03*
X189795000Y-139330000D03*
X189795000Y-141870000D03*
X189795000Y-144410000D03*
X189795000Y-146950000D03*
X189795000Y-149490000D03*
%TD*%
D11*
%TO.C,C3*%
X130510000Y-91810000D03*
X128010000Y-91810000D03*
%TD*%
%TO.C,C10*%
X149410000Y-131050000D03*
X146910000Y-131050000D03*
%TD*%
D10*
%TO.C,U6*%
X110615000Y-140980000D03*
D12*
X113155000Y-140980000D03*
X115695000Y-140980000D03*
X118235000Y-140980000D03*
X120775000Y-140980000D03*
X123315000Y-140980000D03*
X125855000Y-140980000D03*
X125855000Y-133360000D03*
X123315000Y-133360000D03*
X120775000Y-133360000D03*
X118235000Y-133360000D03*
X115695000Y-133360000D03*
X113155000Y-133360000D03*
X110615000Y-133360000D03*
%TD*%
D10*
%TO.C,X1*%
X135030000Y-83200000D03*
D11*
X142650000Y-83200000D03*
X142650000Y-75580000D03*
X135030000Y-75580000D03*
%TD*%
%TO.C,C7*%
X105800000Y-137600000D03*
X105800000Y-140100000D03*
%TD*%
%TO.C,C5*%
X130640000Y-76300000D03*
X130640000Y-73800000D03*
%TD*%
%TO.C,C11*%
X107600000Y-132850000D03*
X107600000Y-135350000D03*
%TD*%
D10*
%TO.C,U2*%
X95955000Y-94925000D03*
D12*
X95955000Y-97465000D03*
X95955000Y-100005000D03*
X95955000Y-102545000D03*
X95955000Y-105085000D03*
X95955000Y-107625000D03*
X95955000Y-110165000D03*
X95955000Y-112705000D03*
X95955000Y-115245000D03*
X95955000Y-117785000D03*
X95955000Y-120325000D03*
X95955000Y-122865000D03*
X95955000Y-125405000D03*
X95955000Y-127945000D03*
X111195000Y-127945000D03*
X111195000Y-125405000D03*
X111195000Y-122865000D03*
X111195000Y-120325000D03*
X111195000Y-117785000D03*
X111195000Y-115245000D03*
X111195000Y-112705000D03*
X111195000Y-110165000D03*
X111195000Y-107625000D03*
X111195000Y-105085000D03*
X111195000Y-102545000D03*
X111195000Y-100005000D03*
X111195000Y-97465000D03*
X111195000Y-94925000D03*
%TD*%
D11*
%TO.C,C9*%
X186600000Y-98800000D03*
X186600000Y-101300000D03*
%TD*%
%TO.C,R7*%
X102400000Y-132700000D03*
D12*
X94780000Y-132700000D03*
%TD*%
D10*
%TO.C,U1*%
X114750000Y-94885000D03*
D12*
X114750000Y-97425000D03*
X114750000Y-99965000D03*
X114750000Y-102505000D03*
X114750000Y-105045000D03*
X114750000Y-107585000D03*
X114750000Y-110125000D03*
X114750000Y-112665000D03*
X114750000Y-115205000D03*
X114750000Y-117745000D03*
X114750000Y-120285000D03*
X114750000Y-122825000D03*
X114750000Y-125365000D03*
X114750000Y-127905000D03*
X129990000Y-127905000D03*
X129990000Y-125365000D03*
X129990000Y-122825000D03*
X129990000Y-120285000D03*
X129990000Y-117745000D03*
X129990000Y-115205000D03*
X129990000Y-112665000D03*
X129990000Y-110125000D03*
X129990000Y-107585000D03*
X129990000Y-105045000D03*
X129990000Y-102505000D03*
X129990000Y-99965000D03*
X129990000Y-97425000D03*
X129990000Y-94885000D03*
%TD*%
D19*
%TO.C,SW1*%
X102190000Y-145700000D03*
X95690000Y-145700000D03*
X95690000Y-150200000D03*
X102190000Y-150200000D03*
%TD*%
D11*
%TO.C,C6*%
X152500000Y-98650000D03*
X152500000Y-101150000D03*
%TD*%
%TO.C,R2*%
X151210000Y-91700000D03*
D12*
X143590000Y-91700000D03*
%TD*%
D11*
%TO.C,R4*%
X102090000Y-77700000D03*
D12*
X109710000Y-77700000D03*
%TD*%
D11*
%TO.C,C2*%
X111670000Y-91900000D03*
X109170000Y-91900000D03*
%TD*%
M02*
